<svg width="24" height="24" viewBox="0 0 24 24" fill="none" xmlns="http://www.w3.org/2000/svg">
<path d="M1.00195 12.0631C1.00312 17.0128 4.58036 21.2272 9.43895 22.0029V14.9709H6.90195V12.0631H9.44195V9.84957C9.32841 8.80069 9.68447 7.75534 10.4136 6.99704C11.1427 6.23874 12.1693 5.84608 13.215 5.92556C13.9655 5.93775 14.7141 6.00501 15.455 6.12679V8.60093H14.191C13.7558 8.54358 13.3183 8.68818 13.0017 8.994C12.6851 9.29981 12.5237 9.73374 12.563 10.1735V12.0631H15.334L14.891 14.9719H12.563V22.0029C17.8174 21.1674 21.502 16.3391 20.9475 11.0158C20.3929 5.6925 15.7932 1.73786 10.4808 2.01682C5.16831 2.29578 1.0028 6.71067 1.00195 12.0631Z" fill="white"/>
</svg>
