<svg width="20" height="20" viewBox="0 0 20 20" fill="none" xmlns="http://www.w3.org/2000/svg">
<path d="M16.7803 11.993C16.5493 11.8893 16.2866 11.8816 16.05 11.9716C15.8134 12.0616 15.6222 12.2419 15.5185 12.4728C15.0503 13.5168 14.2956 14.4066 13.3419 15.0388C12.3882 15.671 11.2747 16.0197 10.1308 16.0443C8.98687 16.069 7.85941 15.7687 6.87935 15.1782C5.89929 14.5877 5.10685 13.7313 4.59405 12.7085L5.13468 12.9492C5.36596 13.0521 5.62867 13.059 5.86503 12.9683C6.10138 12.8776 6.29202 12.6967 6.39499 12.4654C6.49796 12.2341 6.50484 11.9714 6.41411 11.735C6.32339 11.4987 6.14248 11.308 5.9112 11.2051L3.39889 10.0866C3.28438 10.0356 3.16093 10.0076 3.03562 10.0044C2.91031 10.0011 2.78557 10.0225 2.66854 10.0674C2.55151 10.1124 2.44447 10.1799 2.35354 10.2662C2.26261 10.3525 2.18957 10.4558 2.13858 10.5703L1.02003 13.0826C0.917054 13.3139 0.910175 13.5766 1.0009 13.8129C1.09163 14.0493 1.27253 14.2399 1.50382 14.3429C1.7351 14.4459 1.99781 14.4527 2.23417 14.362C2.47052 14.2713 2.66116 14.0904 2.76413 13.8591L2.89171 13.5726C3.55406 14.8899 4.56946 15.9973 5.8246 16.7712C7.07975 17.545 8.52524 17.9548 9.99975 17.9549C10.0459 17.9549 10.0923 17.9545 10.1385 17.9537C11.6492 17.9276 13.1213 17.4718 14.3825 16.6397C15.6437 15.8075 16.6418 14.6335 17.2601 13.2548C17.3638 13.0238 17.3715 12.7611 17.2815 12.5245C17.1915 12.2879 17.0112 12.0967 16.7803 11.993Z" fill="white"/>
<path d="M18.496 5.65712C18.2647 5.55416 18.002 5.54728 17.7656 5.63801C17.5293 5.72874 17.3387 5.90963 17.2357 6.14091L17.1081 6.42743C16.435 5.08855 15.3975 3.96698 14.1149 3.19185C12.8324 2.41671 11.3571 2.01954 9.85873 2.04604C8.3604 2.07255 6.90001 2.52166 5.64571 3.34167C4.39141 4.16168 3.39419 5.31925 2.76885 6.68111C2.71633 6.79502 2.68678 6.91818 2.68188 7.04353C2.67698 7.16887 2.69684 7.29396 2.74032 7.41162C2.7838 7.52929 2.85004 7.63724 2.93526 7.72929C3.02049 7.82134 3.12302 7.89569 3.23699 7.94808C3.35097 8.00048 3.47415 8.0299 3.59951 8.03466C3.72486 8.03942 3.84992 8.01943 3.96754 7.97582C4.08516 7.93222 4.19303 7.86586 4.28499 7.78053C4.37695 7.69521 4.45119 7.5926 4.50346 7.47857C4.97898 6.44286 5.73746 5.5626 6.6915 4.93922C7.64554 4.31584 8.75631 3.97472 9.89579 3.95517C11.0353 3.93563 12.1571 4.23845 13.1319 4.82873C14.1068 5.41902 14.895 6.27275 15.4058 7.29154L14.8652 7.05083C14.6341 6.94943 14.3724 6.94361 14.1371 7.03465C13.9017 7.12569 13.712 7.30619 13.6094 7.53668C13.5068 7.76718 13.4996 8.02892 13.5894 8.26471C13.6792 8.5005 13.8587 8.69114 14.0887 8.79497L16.5937 9.91013L16.5982 9.91216C16.7128 9.96359 16.8364 9.99191 16.9619 9.99549C17.0875 9.99907 17.2125 9.97784 17.3298 9.93301C17.4471 9.88819 17.5544 9.82066 17.6456 9.73428C17.7368 9.64791 17.81 9.54439 17.8611 9.42966L18.9796 6.91743C19.0826 6.68617 19.0895 6.42347 18.9988 6.18712C18.9081 5.95077 18.7273 5.76012 18.496 5.65712Z" fill="white"/>
</svg>
